<?xml version="1.0" standalone="no"?>
<!DOCTYPE svg PUBLIC "-//W3C//DTD SVG 1.1//EN" "http://www.w3.org/Graphics/SVG/1.1/DTD/svg11.dtd">
<svg xmlns="http://www.w3.org/2000/svg" version="1.1" viewBox="0.00 0.00 150.00 74.00" width="150" height="74">
<path fill="#124993" d="   M 141.03 13.77   C 141.60 2.73 121.07 3.51 114.37 3.78   Q 113.91 3.79 113.65 3.41   Q 112.84 2.20 113.35 1.32   Q 113.72 0.68 114.86 0.55   C 123.19 -0.38 147.27 -0.81 146.86 11.95   C 146.56 21.21 133.70 32.82 126.59 37.67   A 0.80 0.77 -56.2 0 1 126.03 37.79   Q 124.33 37.51 124.80 35.62   Q 124.91 35.18 125.27 34.90   C 130.63 30.75 140.67 20.87 141.03 13.77   Z"/>
<circle fill="#124993" cx="105.68" cy="4.99" r="3.88"/>
<circle fill="#1171c6" cx="96.48" cy="7.08" r="3.86"/>
<circle fill="#1171c6" cx="87.35" cy="10.10" r="3.86"/>
<path fill="#d70d13" d="   M 77.48 23.20   C 80.17 23.08 84.97 22.54 87.12 24.05   C 92.82 28.10 86.22 39.37 82.97 43.46   C 78.03 49.67 73.99 50.45 65.76 50.36   Q 59.88 50.29 54.01 50.19   Q 53.38 50.18 53.66 49.62   L 71.34 13.42   A 0.70 0.70 0.0 0 1 71.97 13.02   L 80.32 12.94   A 0.87 0.86 -77.1 0 1 81.10 14.19   L 77.00 22.48   A 0.51 0.50 11.7 0 0 77.48 23.20   Z   M 67.23 43.02   C 74.65 43.45 77.08 37.43 78.56 31.31   A 0.63 0.63 0.0 0 0 77.95 30.54   L 73.60 30.50   A 1.02 1.01 -75.5 0 0 72.71 31.03   L 66.78 42.21   A 0.55 0.55 0.0 0 0 67.23 43.02   Z"/>
<path fill="#d70d13" d="   M 43.59 30.81   Q 42.40 32.11 43.96 32.66   Q 44.37 32.81 44.81 32.80   C 48.39 32.77 55.19 31.95 54.76 37.76   C 54.11 46.48 48.07 50.00 39.86 50.24   Q 32.19 50.48 24.51 50.21   Q 24.00 50.19 24.22 49.74   L 27.21 43.40   A 0.92 0.92 0.0 0 1 28.04 42.88   L 42.31 42.84   A 1.16 1.15 21.4 0 0 43.15 42.48   Q 43.87 41.72 43.33 41.08   C 41.48 38.88 32.14 43.16 31.14 36.28   C 30.85 34.26 32.24 31.29 33.68 29.60   C 40.23 21.84 49.43 22.82 60.09 23.12   Q 60.71 23.14 60.44 23.69   L 57.23 30.10   A 0.81 0.78 -75.5 0 1 56.51 30.54   L 44.34 30.48   A 1.05 1.01 -67.6 0 0 43.59 30.81   Z"/>
<path fill="#d70d13" d="   M 109.44 30.70   Q 109.43 30.64 109.16 30.50   Q 109.01 30.42 108.82 30.43   Q 101.96 30.51 95.20 30.69   A 0.41 0.40 13.7 0 1 94.83 30.09   L 98.26 23.96   A 1.78 1.77 -75.2 0 1 99.80 23.06   Q 107.65 23.04 115.75 23.23   C 119.93 23.32 121.25 26.80 119.60 30.26   Q 116.61 36.54 109.99 49.78   Q 109.76 50.24 109.25 50.24   Q 101.01 50.24 92.89 50.21   Q 88.94 50.20 87.35 49.23   C 84.16 47.27 85.02 43.52 86.97 40.90   C 91.58 34.68 100.29 33.03 107.78 32.87   A 1.75 1.74 82.6 0 0 109.44 30.70   Z   M 104.87 39.29   L 96.36 40.93   A 0.05 0.05 0.0 0 0 96.32 40.98   L 96.33 41.03   A 4.10 2.82 -10.9 0 0 100.89 43.03   L 101.44 42.92   A 4.10 2.82 -10.9 0 0 104.93 39.38   L 104.92 39.33   A 0.05 0.05 0.0 0 0 104.87 39.29   Z"/>
<path fill="#124993" d="   M 9.68 59.52   C 9.85 71.45 30.88 70.68 38.25 69.80   Q 63.79 66.73 87.40 56.33   C 88.77 55.73 90.58 55.84 91.33 57.14   A 0.57 0.57 0.0 0 1 91.05 57.95   Q 73.72 65.03 55.73 69.90   Q 44.12 73.05 36.12 73.63   C 27.51 74.26 2.85 75.00 4.22 60.23   C 5.09 50.87 14.98 42.34 22.18 37.57   A 1.34 1.33 -56.0 0 1 23.13 37.38   Q 24.28 37.59 24.48 38.78   Q 24.58 39.37 24.10 39.72   C 18.58 43.74 9.59 52.76 9.68 59.52   Z"/>
</svg>